<?xml version="1.0" encoding="utf-8"?>
<svg xmlns="http://www.w3.org/2000/svg" xmlns:xlink="http://www.w3.org/1999/xlink" style="margin: auto; background: rgb(27, 27, 27); display: block; shape-rendering: auto;" width="184px" height="184px" viewBox="0 0 100 100" preserveAspectRatio="xMidYMid">
<g transform="rotate(0 50 50)">
  <rect x="47.5" y="27.5" rx="2.5" ry="2.5" width="5" height="5" fill="#00b2f2">
    <animate attributeName="opacity" values="1;0" keyTimes="0;1" dur="0.7042253521126761s" begin="-0.6671608598962195s" repeatCount="indefinite"></animate>
  </rect>
</g><g transform="rotate(18.94736842105263 50 50)">
  <rect x="47.5" y="27.5" rx="2.5" ry="2.5" width="5" height="5" fill="#00b2f2">
    <animate attributeName="opacity" values="1;0" keyTimes="0;1" dur="0.7042253521126761s" begin="-0.6300963676797628s" repeatCount="indefinite"></animate>
  </rect>
</g><g transform="rotate(37.89473684210526 50 50)">
  <rect x="47.5" y="27.5" rx="2.5" ry="2.5" width="5" height="5" fill="#00b2f2">
    <animate attributeName="opacity" values="1;0" keyTimes="0;1" dur="0.7042253521126761s" begin="-0.5930318754633063s" repeatCount="indefinite"></animate>
  </rect>
</g><g transform="rotate(56.8421052631579 50 50)">
  <rect x="47.5" y="27.5" rx="2.5" ry="2.5" width="5" height="5" fill="#00b2f2">
    <animate attributeName="opacity" values="1;0" keyTimes="0;1" dur="0.7042253521126761s" begin="-0.5559673832468496s" repeatCount="indefinite"></animate>
  </rect>
</g><g transform="rotate(75.78947368421052 50 50)">
  <rect x="47.5" y="27.5" rx="2.5" ry="2.5" width="5" height="5" fill="#00b2f2">
    <animate attributeName="opacity" values="1;0" keyTimes="0;1" dur="0.7042253521126761s" begin="-0.518902891030393s" repeatCount="indefinite"></animate>
  </rect>
</g><g transform="rotate(94.73684210526316 50 50)">
  <rect x="47.5" y="27.5" rx="2.5" ry="2.5" width="5" height="5" fill="#00b2f2">
    <animate attributeName="opacity" values="1;0" keyTimes="0;1" dur="0.7042253521126761s" begin="-0.4818383988139363s" repeatCount="indefinite"></animate>
  </rect>
</g><g transform="rotate(113.6842105263158 50 50)">
  <rect x="47.5" y="27.5" rx="2.5" ry="2.5" width="5" height="5" fill="#00b2f2">
    <animate attributeName="opacity" values="1;0" keyTimes="0;1" dur="0.7042253521126761s" begin="-0.4447739065974797s" repeatCount="indefinite"></animate>
  </rect>
</g><g transform="rotate(132.6315789473684 50 50)">
  <rect x="47.5" y="27.5" rx="2.5" ry="2.5" width="5" height="5" fill="#00b2f2">
    <animate attributeName="opacity" values="1;0" keyTimes="0;1" dur="0.7042253521126761s" begin="-0.40770941438102304s" repeatCount="indefinite"></animate>
  </rect>
</g><g transform="rotate(151.57894736842104 50 50)">
  <rect x="47.5" y="27.5" rx="2.5" ry="2.5" width="5" height="5" fill="#00b2f2">
    <animate attributeName="opacity" values="1;0" keyTimes="0;1" dur="0.7042253521126761s" begin="-0.3706449221645664s" repeatCount="indefinite"></animate>
  </rect>
</g><g transform="rotate(170.52631578947367 50 50)">
  <rect x="47.5" y="27.5" rx="2.5" ry="2.5" width="5" height="5" fill="#00b2f2">
    <animate attributeName="opacity" values="1;0" keyTimes="0;1" dur="0.7042253521126761s" begin="-0.33358042994810977s" repeatCount="indefinite"></animate>
  </rect>
</g><g transform="rotate(189.47368421052633 50 50)">
  <rect x="47.5" y="27.5" rx="2.5" ry="2.5" width="5" height="5" fill="#00b2f2">
    <animate attributeName="opacity" values="1;0" keyTimes="0;1" dur="0.7042253521126761s" begin="-0.29651593773165313s" repeatCount="indefinite"></animate>
  </rect>
</g><g transform="rotate(208.42105263157896 50 50)">
  <rect x="47.5" y="27.5" rx="2.5" ry="2.5" width="5" height="5" fill="#00b2f2">
    <animate attributeName="opacity" values="1;0" keyTimes="0;1" dur="0.7042253521126761s" begin="-0.2594514455151965s" repeatCount="indefinite"></animate>
  </rect>
</g><g transform="rotate(227.3684210526316 50 50)">
  <rect x="47.5" y="27.5" rx="2.5" ry="2.5" width="5" height="5" fill="#00b2f2">
    <animate attributeName="opacity" values="1;0" keyTimes="0;1" dur="0.7042253521126761s" begin="-0.22238695329873984s" repeatCount="indefinite"></animate>
  </rect>
</g><g transform="rotate(246.31578947368422 50 50)">
  <rect x="47.5" y="27.5" rx="2.5" ry="2.5" width="5" height="5" fill="#00b2f2">
    <animate attributeName="opacity" values="1;0" keyTimes="0;1" dur="0.7042253521126761s" begin="-0.1853224610822832s" repeatCount="indefinite"></animate>
  </rect>
</g><g transform="rotate(265.2631578947368 50 50)">
  <rect x="47.5" y="27.5" rx="2.5" ry="2.5" width="5" height="5" fill="#00b2f2">
    <animate attributeName="opacity" values="1;0" keyTimes="0;1" dur="0.7042253521126761s" begin="-0.14825796886582657s" repeatCount="indefinite"></animate>
  </rect>
</g><g transform="rotate(284.2105263157895 50 50)">
  <rect x="47.5" y="27.5" rx="2.5" ry="2.5" width="5" height="5" fill="#00b2f2">
    <animate attributeName="opacity" values="1;0" keyTimes="0;1" dur="0.7042253521126761s" begin="-0.11119347664936992s" repeatCount="indefinite"></animate>
  </rect>
</g><g transform="rotate(303.1578947368421 50 50)">
  <rect x="47.5" y="27.5" rx="2.5" ry="2.5" width="5" height="5" fill="#00b2f2">
    <animate attributeName="opacity" values="1;0" keyTimes="0;1" dur="0.7042253521126761s" begin="-0.07412898443291328s" repeatCount="indefinite"></animate>
  </rect>
</g><g transform="rotate(322.10526315789474 50 50)">
  <rect x="47.5" y="27.5" rx="2.5" ry="2.5" width="5" height="5" fill="#00b2f2">
    <animate attributeName="opacity" values="1;0" keyTimes="0;1" dur="0.7042253521126761s" begin="-0.03706449221645664s" repeatCount="indefinite"></animate>
  </rect>
</g><g transform="rotate(341.05263157894734 50 50)">
  <rect x="47.5" y="27.5" rx="2.5" ry="2.5" width="5" height="5" fill="#00b2f2">
    <animate attributeName="opacity" values="1;0" keyTimes="0;1" dur="0.7042253521126761s" begin="0s" repeatCount="indefinite"></animate>
  </rect>
</g>
<!-- [ldio] generated by https://loading.io/ --></svg>